<?xml version="1.0" standalone="no"?><!DOCTYPE svg PUBLIC "-//W3C//DTD SVG 1.1//EN" "http://www.w3.org/Graphics/SVG/1.1/DTD/svg11.dtd"><svg t="1565320114055" class="icon" viewBox="0 0 1024 1024" version="1.1" xmlns="http://www.w3.org/2000/svg" p-id="3706" xmlns:xlink="http://www.w3.org/1999/xlink" width="200" height="200"><defs><style type="text/css"></style></defs><path d="M341.725592 784.653942c-145.715599 0-263.904867-65.080843-264.621165-145.408614 0 30.698511-0.102328 57.610872-0.102328 57.610872 0 80.737084 118.496253 146.124913 264.621165 146.124913 146.227241 0 264.621165-65.387829 264.621165-146.124913L606.244429 638.52903C606.346757 719.266114 487.952833 784.653942 341.725592 784.653942L341.725592 784.653942M341.725592 886.266014C196.009993 886.266014 77.820725 821.287499 77.104427 740.8574c0 30.698511-0.102328 57.610872-0.102328 57.610872 0 80.737084 118.496253 146.124913 264.621165 146.124913 146.227241 0 264.621165-65.387829 264.621165-146.124913l0-58.224843C606.346757 820.878185 487.952833 886.266014 341.725592 886.266014L341.725592 886.266014M341.725592 886.266014 341.725592 886.266014z" p-id="3707"></path><path d="M680.432497 716.912561c-8.493255 0-16.884181-0.306985-25.172779-0.716299-0.306985 2.558209-0.306985 5.116419-0.716299 7.674628 1.739582 5.116419 2.660538 10.64215 2.660538 16.372539l0 34.280004c7.674628 0.409313 15.451584 0.61397 23.330868 0.61397 146.227241 0 264.621165-65.387829 264.621165-146.124913l0-58.224843C945.155991 651.524733 826.659738 716.912561 680.432497 716.912561L680.432497 716.912561M680.432497 716.912561 680.432497 716.912561z" p-id="3708"></path><path d="M680.432497 615.30049c-8.493255 0-16.884181-0.306985-25.172779-0.716299-0.306985 2.558209-0.306985 5.116419-0.716299 7.674628 1.739582 5.116419 2.660538 10.64215 2.660538 16.372539l0 34.280004c7.674628 0.409313 15.451584 0.61397 23.330868 0.61397 146.227241 0 264.621165-65.387829 264.621165-146.124913l0-58.224843C945.155991 549.912661 826.659738 615.30049 680.432497 615.30049L680.432497 615.30049M680.432497 615.30049 680.432497 615.30049z" p-id="3709"></path><path d="M680.432497 411.974018c-145.715599 0-263.904867-65.080843-264.621165-145.408614 0 30.698511-0.102328 57.610872-0.102328 57.610872 0 34.484661 21.795943 66.104127 57.917857 91.072249 36.633557 10.02818 69.173978 24.047167 96.290996 41.545318 33.666034 8.493255 71.015889 13.405016 110.412311 13.405016 146.227241 0 264.621165-65.387829 264.621165-146.124913l0-58.224843C945.155991 346.688518 826.659738 411.974018 680.432497 411.974018L680.432497 411.974018M680.432497 411.974018 680.432497 411.974018z" p-id="3710"></path><path d="M680.432497 513.688418c-17.805136 0-35.098631-1.023284-51.982812-2.865194 13.405016 18.521435 22.512241 38.782452 26.298391 60.373738 8.493255 0.511642 16.986509 0.716299 25.582093 0.716299 146.227241 0 264.621165-65.387829 264.621165-146.124913l0-58.224843C945.155991 448.30059 826.659738 513.688418 680.432497 513.688418L680.432497 513.688418M680.432497 513.688418 680.432497 513.688418z" p-id="3711"></path><path d="M680.432497 76.439292c-146.124913 0-264.621165 65.387829-264.621165 146.124913 0 80.737084 118.496253 146.124913 264.621165 146.124913 146.227241 0 264.621165-65.387829 264.621165-146.124913C945.155991 141.827121 826.659738 76.439292 680.432497 76.439292L680.432497 76.439292M680.432497 76.439292 680.432497 76.439292z" p-id="3712"></path><path d="M341.725592 449.119217c-146.124913 0-264.621165 65.387829-264.621165 146.124913 0 80.737084 118.496253 146.124913 264.621165 146.124913 146.227241 0 264.621165-65.387829 264.621165-146.124913C606.346757 514.404717 487.952833 449.119217 341.725592 449.119217L341.725592 449.119217M341.725592 449.119217 341.725592 449.119217z" p-id="3713"></path></svg>