<?xml version="1.0" standalone="no"?><!DOCTYPE svg PUBLIC "-//W3C//DTD SVG 1.1//EN" "http://www.w3.org/Graphics/SVG/1.1/DTD/svg11.dtd"><svg t="1565319697875" class="icon" viewBox="0 0 1024 1024" version="1.1" xmlns="http://www.w3.org/2000/svg" p-id="2420" xmlns:xlink="http://www.w3.org/1999/xlink" width="200" height="200"><defs><style type="text/css"></style></defs><path d="M577.6 820.8l-5.2-14.9c-1.9-5.4-3.4-10.4-4.7-15.3-2.4-9.4-4.1-19.1-5-29l-1.4-15.7 33.3-21c0.6-4.3 1.4-8.8 2.4-13.1l-24.1-30.9 6.9-14.4c6.6-13.8 14.9-26.8 24.8-38.8l10.2-12.2 38.1 9c3-2.3 6.3-4.5 9.6-6.7l1-8.9c-35.7-32-77.8-56.9-124.1-72.7C612.1 494.1 661 415.6 661 325.8c0-134.1-109.1-243.1-243.1-243.1-134.1 0-243.1 109.1-243.1 243.1 0 91.9 51.3 172.1 126.7 213.4C164 589.6 65.9 721.6 65.9 876h550.9l8.4-37.8c-3.1-3.9-6-8.1-8.7-12.3l-38.9-5.1z" p-id="2421" ></path><path d="M921.3 760.4l36.7-23.1c-0.9-9.9-2.6-19.9-5.1-29.8-1.4-5.3-3-10.6-4.8-15.7l-43-5.6c-6.6-13-14.8-24.7-24.6-35l9.5-42.3c-12.1-9.9-25.3-18.2-39.5-24.8l-34.3 26.8c-13-4.1-26.5-6.5-40.5-7l-23-36.5c-9.5 0.9-19 2.6-28.4 5-6.1 1.5-11.9 3.4-17.7 5.6l-5 43.1c-11.9 6.2-22.8 13.7-32.4 22.6l-42.1-9.9c-10.2 12.2-18.8 25.5-25.5 39.9l26.6 34.1c-4.2 12.9-6.8 26.5-7.4 40.5L584 771.4c0.9 9.9 2.6 19.9 5.1 29.8 1.4 5.3 3 10.6 4.8 15.7l43 5.6c6.6 13 14.8 24.7 24.6 35l-9.4 42.3c12.1 9.9 25.3 18.2 39.5 24.8l34.3-26.8c13 4.1 26.5 6.5 40.5 7l23.1 36.6c9.5-0.9 19-2.6 28.4-5 6.1-1.5 11.9-3.4 17.7-5.6l5-43.1c11.9-6.2 22.8-13.7 32.4-22.6l42.1 9.9c10.2-12.2 18.8-25.5 25.5-39.9L914 801c4.2-13.2 6.7-26.7 7.3-40.6zM792.1 836c-45.1 11.6-91-15.5-102.6-60.6-11.6-45.1 15.5-91 60.6-102.6 45.1-11.6 91 15.5 102.6 60.6 11.6 45-15.5 91-60.6 102.6z" p-id="2422"></path><path d="M771.4 754.5m-43.6 0a43.6 43.6 0 1 0 87.2 0 43.6 43.6 0 1 0-87.2 0Z" p-id="2423"></path></svg>